# xmcd
#
# Track frame offsets:
#	150
#	6422
#	16426
#	27561
#	95228
#	108267
#	123987
#	142856
#	159786
#	176403
#	193190
#	254967
#	259633
#	279673
#	300328
#	318495
#
# Disc length: 4561 seconds
#
# Revision: 0
# Processed by: cddbd v1.5.1PL2 Copyright (c) Steve Scherf et al.
# Submitted via: audiograbber 1.83.01
#
DISCID=dd11cf10
DTITLE=Jimi Hendrix - Electric Ladyland (Remastered 1997)
DYEAR=1968
DGENRE=Rock
TTITLE0=And The Gods Made Love
TTITLE1=Have You Ever Been (To Electric Ladyland)
TTITLE2=Crosstown Traffic
TTITLE3=Voodoo Chile
TTITLE4=Little Miss Strange
TTITLE5=Long Hot Summer Night
TTITLE6=Come On (Let The Good Times Roll)
TTITLE7=Gypsy Eyes
TTITLE8=Burning Of The Midnight Lamp
TTITLE9=Rainy Day, Dream Away
TTITLE10=1983...(A Merman I Should Turn To Be)
TTITLE11=Moon, Turn The Tides...Gently Gently Away
TTITLE12=Still Raining, Still Dreaming
TTITLE13=House Burning Down
TTITLE14=All Along The Watchtower
TTITLE15=Voodoo Child (Slight Return)
EXTD=
EXTT0=
EXTT1=
EXTT2=
EXTT3=
EXTT4=
EXTT5=
EXTT6=
EXTT7=
EXTT8=
EXTT9=
EXTT10=
EXTT11=
EXTT12=
EXTT13=
EXTT14=
EXTT15=
PLAYORDER=
